<?xml version="1.0" encoding="utf-8" standalone="no"?>
<!DOCTYPE svg PUBLIC "-//W3C//DTD SVG 1.1//EN"
  "http://www.w3.org/Graphics/SVG/1.1/DTD/svg11.dtd">
<svg xmlns:xlink="http://www.w3.org/1999/xlink" width="576pt" height="576pt" viewBox="0 0 576 576" xmlns="http://www.w3.org/2000/svg" version="1.1">
 <metadata>
  <rdf:RDF xmlns:dc="http://purl.org/dc/elements/1.1/" xmlns:cc="http://creativecommons.org/ns#" xmlns:rdf="http://www.w3.org/1999/02/22-rdf-syntax-ns#">
   <cc:Work>
    <dc:type rdf:resource="http://purl.org/dc/dcmitype/StillImage"/>
    <dc:date>2023-07-03T21:26:37.487882</dc:date>
    <dc:format>image/svg+xml</dc:format>
    <dc:creator>
     <cc:Agent>
      <dc:title>Matplotlib v3.7.1, https://matplotlib.org/</dc:title>
     </cc:Agent>
    </dc:creator>
   </cc:Work>
  </rdf:RDF>
 </metadata>
 <defs>
  <style type="text/css">*{stroke-linejoin: round; stroke-linecap: butt}</style>
 </defs>
 <g id="figure_1">
  <g id="patch_1">
   <path d="M 0 576 
L 576 576 
L 576 0 
L 0 0 
z
" style="fill: #ffffff"/>
  </g>
  <g id="axes_1">
   <g id="patch_2">
    <path d="M 516.96 290.88 
C 516.96 261.758744 511.223747 232.920655 500.079525 206.016122 
C 488.935303 179.111589 472.599838 154.663838 452.008 134.072 
C 431.416162 113.480162 406.968411 97.144697 380.063878 86.000475 
C 353.159345 74.856253 324.321256 69.12 295.2 69.12 
C 266.078744 69.12 237.240655 74.856253 210.336122 86.000475 
C 183.431589 97.144697 158.983838 113.480162 138.392 134.072 
C 117.800162 154.663838 101.464697 179.111589 90.320475 206.016122 
C 79.176253 232.920655 73.44 261.758744 73.44 290.88 
C 73.44 320.001256 79.176253 348.839345 90.320475 375.743878 
C 101.464697 402.648411 117.800162 427.096162 138.392 447.688 
C 158.983838 468.279838 183.431589 484.615303 210.336122 495.759525 
C 237.240655 506.903747 266.078744 512.64 295.2 512.64 
C 324.321256 512.64 353.159345 506.903747 380.063878 495.759525 
C 406.968411 484.615303 431.416162 468.279838 452.008 447.688 
C 472.599838 427.096162 488.935303 402.648411 500.079525 375.743878 
C 511.223747 348.839345 516.96 320.001256 516.96 290.88 
M 295.2 290.88 
C 295.2 290.88 295.2 290.88 295.2 290.88 
C 295.2 290.88 295.2 290.88 295.2 290.88 
C 295.2 290.88 295.2 290.88 295.2 290.88 
C 295.2 290.88 295.2 290.88 295.2 290.88 
C 295.2 290.88 295.2 290.88 295.2 290.88 
C 295.2 290.88 295.2 290.88 295.2 290.88 
C 295.2 290.88 295.2 290.88 295.2 290.88 
C 295.2 290.88 295.2 290.88 295.2 290.88 
C 295.2 290.88 295.2 290.88 295.2 290.88 
C 295.2 290.88 295.2 290.88 295.2 290.88 
C 295.2 290.88 295.2 290.88 295.2 290.88 
C 295.2 290.88 295.2 290.88 295.2 290.88 
C 295.2 290.88 295.2 290.88 295.2 290.88 
C 295.2 290.88 295.2 290.88 295.2 290.88 
C 295.2 290.88 295.2 290.88 295.2 290.88 
C 295.2 290.88 295.2 290.88 295.2 290.88 
z
" style="fill: #ffffff"/>
   </g>
   <g id="matplotlib.axis_1">
    <g id="xtick_1">
     <g id="line2d_1">
      <path d="M 295.2 290.88 
L 516.96 290.88 
" clip-path="url(#p4c4e25a241)" style="fill: none; stroke: #b0b0b0; stroke-width: 0.8; stroke-linecap: square"/>
     </g>
     <g id="text_1">
      <!-- 0° -->
      <g transform="translate(525.27875 293.639375) scale(0.1 -0.1)">
       <defs>
        <path id="DejaVuSans-30" d="M 2034 4250 
Q 1547 4250 1301 3770 
Q 1056 3291 1056 2328 
Q 1056 1369 1301 889 
Q 1547 409 2034 409 
Q 2525 409 2770 889 
Q 3016 1369 3016 2328 
Q 3016 3291 2770 3770 
Q 2525 4250 2034 4250 
z
M 2034 4750 
Q 2819 4750 3233 4129 
Q 3647 3509 3647 2328 
Q 3647 1150 3233 529 
Q 2819 -91 2034 -91 
Q 1250 -91 836 529 
Q 422 1150 422 2328 
Q 422 3509 836 4129 
Q 1250 4750 2034 4750 
z
" transform="scale(0.015625)"/>
        <path id="DejaVuSans-b0" d="M 1600 4347 
Q 1350 4347 1178 4173 
Q 1006 4000 1006 3750 
Q 1006 3503 1178 3333 
Q 1350 3163 1600 3163 
Q 1850 3163 2022 3333 
Q 2194 3503 2194 3750 
Q 2194 3997 2020 4172 
Q 1847 4347 1600 4347 
z
M 1600 4750 
Q 1800 4750 1984 4673 
Q 2169 4597 2303 4453 
Q 2447 4313 2519 4134 
Q 2591 3956 2591 3750 
Q 2591 3338 2302 3052 
Q 2013 2766 1594 2766 
Q 1172 2766 890 3047 
Q 609 3328 609 3750 
Q 609 4169 896 4459 
Q 1184 4750 1600 4750 
z
" transform="scale(0.015625)"/>
       </defs>
       <use xlink:href="#DejaVuSans-30"/>
       <use xlink:href="#DejaVuSans-b0" x="63.623047"/>
      </g>
     </g>
    </g>
    <g id="xtick_2">
     <g id="line2d_2">
      <path d="M 295.2 290.88 
L 452.008 134.072 
" clip-path="url(#p4c4e25a241)" style="fill: none; stroke: #b0b0b0; stroke-width: 0.8; stroke-linecap: square"/>
     </g>
     <g id="text_2">
      <!-- 45° -->
      <g transform="translate(453.044995 126.93188) scale(0.1 -0.1)">
       <defs>
        <path id="DejaVuSans-34" d="M 2419 4116 
L 825 1625 
L 2419 1625 
L 2419 4116 
z
M 2253 4666 
L 3047 4666 
L 3047 1625 
L 3713 1625 
L 3713 1100 
L 3047 1100 
L 3047 0 
L 2419 0 
L 2419 1100 
L 313 1100 
L 313 1709 
L 2253 4666 
z
" transform="scale(0.015625)"/>
        <path id="DejaVuSans-35" d="M 691 4666 
L 3169 4666 
L 3169 4134 
L 1269 4134 
L 1269 2991 
Q 1406 3038 1543 3061 
Q 1681 3084 1819 3084 
Q 2600 3084 3056 2656 
Q 3513 2228 3513 1497 
Q 3513 744 3044 326 
Q 2575 -91 1722 -91 
Q 1428 -91 1123 -41 
Q 819 9 494 109 
L 494 744 
Q 775 591 1075 516 
Q 1375 441 1709 441 
Q 2250 441 2565 725 
Q 2881 1009 2881 1497 
Q 2881 1984 2565 2268 
Q 2250 2553 1709 2553 
Q 1456 2553 1204 2497 
Q 953 2441 691 2322 
L 691 4666 
z
" transform="scale(0.015625)"/>
       </defs>
       <use xlink:href="#DejaVuSans-34"/>
       <use xlink:href="#DejaVuSans-35" x="63.623047"/>
       <use xlink:href="#DejaVuSans-b0" x="127.246094"/>
      </g>
     </g>
    </g>
    <g id="xtick_3">
     <g id="line2d_3">
      <path d="M 295.2 290.88 
L 295.2 69.12 
" clip-path="url(#p4c4e25a241)" style="fill: none; stroke: #b0b0b0; stroke-width: 0.8; stroke-linecap: square"/>
     </g>
     <g id="text_3">
      <!-- 90° -->
      <g transform="translate(286.3375 57.879375) scale(0.1 -0.1)">
       <defs>
        <path id="DejaVuSans-39" d="M 703 97 
L 703 672 
Q 941 559 1184 500 
Q 1428 441 1663 441 
Q 2288 441 2617 861 
Q 2947 1281 2994 2138 
Q 2813 1869 2534 1725 
Q 2256 1581 1919 1581 
Q 1219 1581 811 2004 
Q 403 2428 403 3163 
Q 403 3881 828 4315 
Q 1253 4750 1959 4750 
Q 2769 4750 3195 4129 
Q 3622 3509 3622 2328 
Q 3622 1225 3098 567 
Q 2575 -91 1691 -91 
Q 1453 -91 1209 -44 
Q 966 3 703 97 
z
M 1959 2075 
Q 2384 2075 2632 2365 
Q 2881 2656 2881 3163 
Q 2881 3666 2632 3958 
Q 2384 4250 1959 4250 
Q 1534 4250 1286 3958 
Q 1038 3666 1038 3163 
Q 1038 2656 1286 2365 
Q 1534 2075 1959 2075 
z
" transform="scale(0.015625)"/>
       </defs>
       <use xlink:href="#DejaVuSans-39"/>
       <use xlink:href="#DejaVuSans-30" x="63.623047"/>
       <use xlink:href="#DejaVuSans-b0" x="127.246094"/>
      </g>
     </g>
    </g>
    <g id="xtick_4">
     <g id="line2d_4">
      <path d="M 295.2 290.88 
L 138.392 134.072 
" clip-path="url(#p4c4e25a241)" style="fill: none; stroke: #b0b0b0; stroke-width: 0.8; stroke-linecap: square"/>
     </g>
     <g id="text_4">
      <!-- 135° -->
      <g transform="translate(116.448755 126.93188) scale(0.1 -0.1)">
       <defs>
        <path id="DejaVuSans-31" d="M 794 531 
L 1825 531 
L 1825 4091 
L 703 3866 
L 703 4441 
L 1819 4666 
L 2450 4666 
L 2450 531 
L 3481 531 
L 3481 0 
L 794 0 
L 794 531 
z
" transform="scale(0.015625)"/>
        <path id="DejaVuSans-33" d="M 2597 2516 
Q 3050 2419 3304 2112 
Q 3559 1806 3559 1356 
Q 3559 666 3084 287 
Q 2609 -91 1734 -91 
Q 1441 -91 1130 -33 
Q 819 25 488 141 
L 488 750 
Q 750 597 1062 519 
Q 1375 441 1716 441 
Q 2309 441 2620 675 
Q 2931 909 2931 1356 
Q 2931 1769 2642 2001 
Q 2353 2234 1838 2234 
L 1294 2234 
L 1294 2753 
L 1863 2753 
Q 2328 2753 2575 2939 
Q 2822 3125 2822 3475 
Q 2822 3834 2567 4026 
Q 2313 4219 1838 4219 
Q 1578 4219 1281 4162 
Q 984 4106 628 3988 
L 628 4550 
Q 988 4650 1302 4700 
Q 1616 4750 1894 4750 
Q 2613 4750 3031 4423 
Q 3450 4097 3450 3541 
Q 3450 3153 3228 2886 
Q 3006 2619 2597 2516 
z
" transform="scale(0.015625)"/>
       </defs>
       <use xlink:href="#DejaVuSans-31"/>
       <use xlink:href="#DejaVuSans-33" x="63.623047"/>
       <use xlink:href="#DejaVuSans-35" x="127.246094"/>
       <use xlink:href="#DejaVuSans-b0" x="190.869141"/>
      </g>
     </g>
    </g>
    <g id="xtick_5">
     <g id="line2d_5">
      <path d="M 295.2 290.88 
L 73.44 290.88 
" clip-path="url(#p4c4e25a241)" style="fill: none; stroke: #b0b0b0; stroke-width: 0.8; stroke-linecap: square"/>
     </g>
     <g id="text_5">
      <!-- 180° -->
      <g transform="translate(47.39625 293.639375) scale(0.1 -0.1)">
       <defs>
        <path id="DejaVuSans-38" d="M 2034 2216 
Q 1584 2216 1326 1975 
Q 1069 1734 1069 1313 
Q 1069 891 1326 650 
Q 1584 409 2034 409 
Q 2484 409 2743 651 
Q 3003 894 3003 1313 
Q 3003 1734 2745 1975 
Q 2488 2216 2034 2216 
z
M 1403 2484 
Q 997 2584 770 2862 
Q 544 3141 544 3541 
Q 544 4100 942 4425 
Q 1341 4750 2034 4750 
Q 2731 4750 3128 4425 
Q 3525 4100 3525 3541 
Q 3525 3141 3298 2862 
Q 3072 2584 2669 2484 
Q 3125 2378 3379 2068 
Q 3634 1759 3634 1313 
Q 3634 634 3220 271 
Q 2806 -91 2034 -91 
Q 1263 -91 848 271 
Q 434 634 434 1313 
Q 434 1759 690 2068 
Q 947 2378 1403 2484 
z
M 1172 3481 
Q 1172 3119 1398 2916 
Q 1625 2713 2034 2713 
Q 2441 2713 2670 2916 
Q 2900 3119 2900 3481 
Q 2900 3844 2670 4047 
Q 2441 4250 2034 4250 
Q 1625 4250 1398 4047 
Q 1172 3844 1172 3481 
z
" transform="scale(0.015625)"/>
       </defs>
       <use xlink:href="#DejaVuSans-31"/>
       <use xlink:href="#DejaVuSans-38" x="63.623047"/>
       <use xlink:href="#DejaVuSans-30" x="127.246094"/>
       <use xlink:href="#DejaVuSans-b0" x="190.869141"/>
      </g>
     </g>
    </g>
    <g id="xtick_6">
     <g id="line2d_6">
      <path d="M 295.2 290.88 
L 138.392 447.688 
" clip-path="url(#p4c4e25a241)" style="fill: none; stroke: #b0b0b0; stroke-width: 0.8; stroke-linecap: square"/>
     </g>
     <g id="text_6">
      <!-- 225° -->
      <g transform="translate(116.448755 460.34687) scale(0.1 -0.1)">
       <defs>
        <path id="DejaVuSans-32" d="M 1228 531 
L 3431 531 
L 3431 0 
L 469 0 
L 469 531 
Q 828 903 1448 1529 
Q 2069 2156 2228 2338 
Q 2531 2678 2651 2914 
Q 2772 3150 2772 3378 
Q 2772 3750 2511 3984 
Q 2250 4219 1831 4219 
Q 1534 4219 1204 4116 
Q 875 4013 500 3803 
L 500 4441 
Q 881 4594 1212 4672 
Q 1544 4750 1819 4750 
Q 2544 4750 2975 4387 
Q 3406 4025 3406 3419 
Q 3406 3131 3298 2873 
Q 3191 2616 2906 2266 
Q 2828 2175 2409 1742 
Q 1991 1309 1228 531 
z
" transform="scale(0.015625)"/>
       </defs>
       <use xlink:href="#DejaVuSans-32"/>
       <use xlink:href="#DejaVuSans-32" x="63.623047"/>
       <use xlink:href="#DejaVuSans-35" x="127.246094"/>
       <use xlink:href="#DejaVuSans-b0" x="190.869141"/>
      </g>
     </g>
    </g>
    <g id="xtick_7">
     <g id="line2d_7">
      <path d="M 295.2 290.88 
L 295.2 512.64 
" clip-path="url(#p4c4e25a241)" style="fill: none; stroke: #b0b0b0; stroke-width: 0.8; stroke-linecap: square"/>
     </g>
     <g id="text_7">
      <!-- 270° -->
      <g transform="translate(283.15625 529.399375) scale(0.1 -0.1)">
       <defs>
        <path id="DejaVuSans-37" d="M 525 4666 
L 3525 4666 
L 3525 4397 
L 1831 0 
L 1172 0 
L 2766 4134 
L 525 4134 
L 525 4666 
z
" transform="scale(0.015625)"/>
       </defs>
       <use xlink:href="#DejaVuSans-32"/>
       <use xlink:href="#DejaVuSans-37" x="63.623047"/>
       <use xlink:href="#DejaVuSans-30" x="127.246094"/>
       <use xlink:href="#DejaVuSans-b0" x="190.869141"/>
      </g>
     </g>
    </g>
    <g id="xtick_8">
     <g id="line2d_8">
      <path d="M 295.2 290.88 
L 452.008 447.688 
" clip-path="url(#p4c4e25a241)" style="fill: none; stroke: #b0b0b0; stroke-width: 0.8; stroke-linecap: square"/>
     </g>
     <g id="text_8">
      <!-- 315° -->
      <g transform="translate(449.863745 460.34687) scale(0.1 -0.1)">
       <use xlink:href="#DejaVuSans-33"/>
       <use xlink:href="#DejaVuSans-31" x="63.623047"/>
       <use xlink:href="#DejaVuSans-35" x="127.246094"/>
       <use xlink:href="#DejaVuSans-b0" x="190.869141"/>
      </g>
     </g>
    </g>
   </g>
   <g id="matplotlib.axis_2">
    <g id="ytick_1">
     <g id="line2d_9">
      <path d="M 327.246122 290.88 
C 327.246122 286.671742 326.417187 282.504404 324.806756 278.61648 
C 323.196325 274.728557 320.835718 271.195658 317.86003 268.21997 
C 314.884342 265.244282 311.351443 262.883675 307.46352 261.273244 
C 303.575596 259.662813 299.408258 258.833878 295.2 258.833878 
C 290.991742 258.833878 286.824404 259.662813 282.93648 261.273244 
C 279.048557 262.883675 275.515658 265.244282 272.53997 268.21997 
C 269.564282 271.195658 267.203675 274.728557 265.593244 278.61648 
C 263.982813 282.504404 263.153878 286.671742 263.153878 290.88 
C 263.153878 295.088258 263.982813 299.255596 265.593244 303.14352 
C 267.203675 307.031443 269.564282 310.564342 272.53997 313.54003 
C 275.515658 316.515718 279.048557 318.876325 282.93648 320.486756 
C 286.824404 322.097187 290.991742 322.926122 295.2 322.926122 
C 299.408258 322.926122 303.575596 322.097187 307.46352 320.486756 
C 311.351443 318.876325 314.884342 316.515718 317.86003 313.54003 
C 320.835718 310.564342 323.196325 307.031443 324.806756 303.14352 
C 326.417187 299.255596 327.246122 295.088258 327.246122 290.88 
" clip-path="url(#p4c4e25a241)" style="fill: none; stroke: #b0b0b0; stroke-width: 0.8; stroke-linecap: square"/>
     </g>
     <g id="text_9">
      <!-- 5 -->
      <g transform="translate(324.806756 276.536793) scale(0.1 -0.1)">
       <use xlink:href="#DejaVuSans-35"/>
      </g>
     </g>
    </g>
    <g id="ytick_2">
     <g id="line2d_10">
      <path d="M 359.292244 290.88 
C 359.292244 282.463484 357.634374 274.128807 354.413512 266.35296 
C 351.192651 258.577113 346.471436 251.511316 340.52006 245.55994 
C 334.568684 239.608564 327.502887 234.887349 319.72704 231.666488 
C 311.951193 228.445626 303.616516 226.787756 295.2 226.787756 
C 286.783484 226.787756 278.448807 228.445626 270.67296 231.666488 
C 262.897113 234.887349 255.831316 239.608564 249.87994 245.55994 
C 243.928564 251.511316 239.207349 258.577113 235.986488 266.35296 
C 232.765626 274.128807 231.107756 282.463484 231.107756 290.88 
C 231.107756 299.296516 232.765626 307.631193 235.986488 315.40704 
C 239.207349 323.182887 243.928564 330.248684 249.87994 336.20006 
C 255.831316 342.151436 262.897113 346.872651 270.67296 350.093512 
C 278.448807 353.314374 286.783484 354.972244 295.2 354.972244 
C 303.616516 354.972244 311.951193 353.314374 319.72704 350.093512 
C 327.502887 346.872651 334.568684 342.151436 340.52006 336.20006 
C 346.471436 330.248684 351.192651 323.182887 354.413512 315.40704 
C 357.634374 307.631193 359.292244 299.296516 359.292244 290.88 
" clip-path="url(#p4c4e25a241)" style="fill: none; stroke: #b0b0b0; stroke-width: 0.8; stroke-linecap: square"/>
     </g>
     <g id="text_10">
      <!-- 10 -->
      <g transform="translate(354.413512 264.273273) scale(0.1 -0.1)">
       <use xlink:href="#DejaVuSans-31"/>
       <use xlink:href="#DejaVuSans-30" x="63.623047"/>
      </g>
     </g>
    </g>
    <g id="ytick_3">
     <g id="line2d_11">
      <path d="M 391.338366 290.88 
C 391.338366 278.255226 388.85156 265.753211 384.020268 254.08944 
C 379.188976 242.42567 372.107154 231.826973 363.18009 222.89991 
C 354.253027 213.972846 343.65433 206.891024 331.99056 202.059732 
C 320.326789 197.22844 307.824774 194.741634 295.2 194.741634 
C 282.575226 194.741634 270.073211 197.22844 258.40944 202.059732 
C 246.74567 206.891024 236.146973 213.972846 227.21991 222.89991 
C 218.292846 231.826973 211.211024 242.42567 206.379732 254.08944 
C 201.54844 265.753211 199.061634 278.255226 199.061634 290.88 
C 199.061634 303.504774 201.54844 316.006789 206.379732 327.67056 
C 211.211024 339.33433 218.292846 349.933027 227.21991 358.86009 
C 236.146973 367.787154 246.74567 374.868976 258.40944 379.700268 
C 270.073211 384.53156 282.575226 387.018366 295.2 387.018366 
C 307.824774 387.018366 320.326789 384.53156 331.99056 379.700268 
C 343.65433 374.868976 354.253027 367.787154 363.18009 358.86009 
C 372.107154 349.933027 379.188976 339.33433 384.020268 327.67056 
C 388.85156 316.006789 391.338366 303.504774 391.338366 290.88 
" clip-path="url(#p4c4e25a241)" style="fill: none; stroke: #b0b0b0; stroke-width: 0.8; stroke-linecap: square"/>
     </g>
     <g id="text_11">
      <!-- 15 -->
      <g transform="translate(384.020268 252.009753) scale(0.1 -0.1)">
       <use xlink:href="#DejaVuSans-31"/>
       <use xlink:href="#DejaVuSans-35" x="63.623047"/>
      </g>
     </g>
    </g>
    <g id="ytick_4">
     <g id="line2d_12">
      <path d="M 423.384487 290.88 
C 423.384487 274.046967 420.068747 257.377615 413.627024 241.82592 
C 407.185302 226.274226 397.742872 212.142631 385.84012 200.23988 
C 373.937369 188.337128 359.805774 178.894698 344.25408 172.452976 
C 328.702385 166.011253 312.033033 162.695513 295.2 162.695513 
C 278.366967 162.695513 261.697615 166.011253 246.14592 172.452976 
C 230.594226 178.894698 216.462631 188.337128 204.55988 200.23988 
C 192.657128 212.142631 183.214698 226.274226 176.772976 241.82592 
C 170.331253 257.377615 167.015513 274.046967 167.015513 290.88 
C 167.015513 307.713033 170.331253 324.382385 176.772976 339.93408 
C 183.214698 355.485774 192.657128 369.617369 204.55988 381.52012 
C 216.462631 393.422872 230.594226 402.865302 246.14592 409.307024 
C 261.697615 415.748747 278.366967 419.064487 295.2 419.064487 
C 312.033033 419.064487 328.702385 415.748747 344.25408 409.307024 
C 359.805774 402.865302 373.937369 393.422872 385.84012 381.52012 
C 397.742872 369.617369 407.185302 355.485774 413.627024 339.93408 
C 420.068747 324.382385 423.384487 307.713033 423.384487 290.88 
" clip-path="url(#p4c4e25a241)" style="fill: none; stroke: #b0b0b0; stroke-width: 0.8; stroke-linecap: square"/>
     </g>
     <g id="text_12">
      <!-- 20 -->
      <g transform="translate(413.627024 239.746233) scale(0.1 -0.1)">
       <use xlink:href="#DejaVuSans-32"/>
       <use xlink:href="#DejaVuSans-30" x="63.623047"/>
      </g>
     </g>
    </g>
    <g id="ytick_5">
     <g id="line2d_13">
      <path d="M 455.430609 290.88 
C 455.430609 269.838709 451.285934 249.002018 443.23378 229.5624 
C 435.181627 210.122783 423.37859 192.458289 408.50015 177.57985 
C 393.621711 162.70141 375.957217 150.898373 356.5176 142.84622 
C 337.077982 134.794066 316.241291 130.649391 295.2 130.649391 
C 274.158709 130.649391 253.322018 134.794066 233.8824 142.84622 
C 214.442783 150.898373 196.778289 162.70141 181.89985 177.57985 
C 167.02141 192.458289 155.218373 210.122783 147.16622 229.5624 
C 139.114066 249.002018 134.969391 269.838709 134.969391 290.88 
C 134.969391 311.921291 139.114066 332.757982 147.16622 352.1976 
C 155.218373 371.637217 167.02141 389.301711 181.89985 404.18015 
C 196.778289 419.05859 214.442783 430.861627 233.8824 438.91378 
C 253.322018 446.965934 274.158709 451.110609 295.2 451.110609 
C 316.241291 451.110609 337.077982 446.965934 356.5176 438.91378 
C 375.957217 430.861627 393.621711 419.05859 408.50015 404.18015 
C 423.37859 389.301711 435.181627 371.637217 443.23378 352.1976 
C 451.285934 332.757982 455.430609 311.921291 455.430609 290.88 
" clip-path="url(#p4c4e25a241)" style="fill: none; stroke: #b0b0b0; stroke-width: 0.8; stroke-linecap: square"/>
     </g>
     <g id="text_13">
      <!-- 25 -->
      <g transform="translate(443.23378 227.482713) scale(0.1 -0.1)">
       <use xlink:href="#DejaVuSans-32"/>
       <use xlink:href="#DejaVuSans-35" x="63.623047"/>
      </g>
     </g>
    </g>
    <g id="ytick_6">
     <g id="line2d_14">
      <path d="M 487.476731 290.88 
C 487.476731 265.630451 482.503121 240.626422 472.840537 217.298881 
C 463.177952 193.971339 449.014308 172.773947 431.160181 154.919819 
C 413.306053 137.065692 392.108661 122.902048 368.781119 113.239463 
C 345.453578 103.576879 320.449549 98.603269 295.2 98.603269 
C 269.950451 98.603269 244.946422 103.576879 221.618881 113.239463 
C 198.291339 122.902048 177.093947 137.065692 159.239819 154.919819 
C 141.385692 172.773947 127.222048 193.971339 117.559463 217.298881 
C 107.896879 240.626422 102.923269 265.630451 102.923269 290.88 
C 102.923269 316.129549 107.896879 341.133578 117.559463 364.461119 
C 127.222048 387.788661 141.385692 408.986053 159.239819 426.840181 
C 177.093947 444.694308 198.291339 458.857952 221.618881 468.520537 
C 244.946422 478.183121 269.950451 483.156731 295.2 483.156731 
C 320.449549 483.156731 345.453578 478.183121 368.781119 468.520537 
C 392.108661 458.857952 413.306053 444.694308 431.160181 426.840181 
C 449.014308 408.986053 463.177952 387.788661 472.840537 364.461119 
C 482.503121 341.133578 487.476731 316.129549 487.476731 290.88 
" clip-path="url(#p4c4e25a241)" style="fill: none; stroke: #b0b0b0; stroke-width: 0.8; stroke-linecap: square"/>
     </g>
     <g id="text_14">
      <!-- 30 -->
      <g transform="translate(472.840537 215.219193) scale(0.1 -0.1)">
       <use xlink:href="#DejaVuSans-33"/>
       <use xlink:href="#DejaVuSans-30" x="63.623047"/>
      </g>
     </g>
    </g>
   </g>
   <g id="line2d_15">
    <path d="M 451.972124 290.88 
L 449.895589 289.92986 
L 449.462428 288.984969 
L 448.735945 288.050663 
L 446.492049 287.162357 
L 438.89563 285.582198 
L 438.193023 284.728446 
L 441.820545 282.766949 
L 443.219894 281.777286 
L 447.667938 279.622256 
L 448.169834 278.640106 
L 444.269361 277.107428 
L 445.01319 276.110172 
L 449.394536 274.721375 
L 455.19128 273.119815 
L 459.590042 271.608698 
L 461.7091 270.322783 
L 462.663144 269.159968 
L 463.186958 268.04206 
L 463.017105 267.014492 
L 462.189918 266.084818 
L 461.048067 265.212316 
L 460.125838 264.316822 
L 460.309449 263.24581 
L 464.347294 260.42951 
L 463.673268 259.48137 
L 461.15445 258.894901 
L 460.605595 257.945777 
L 464.947572 254.907994 
L 465.88714 253.612018 
L 467.939288 252.050914 
L 471.840348 250.032697 
L 474.929454 248.153772 
L 475.293798 246.896803 
L 474.107809 246.020308 
L 473.278671 245.063889 
L 473.128331 242.764744 
L 473.212382 241.566758 
L 474.667899 239.974644 
L 478.124813 237.778068 
L 482.672261 235.207255 
L 486.408878 232.8173 
L 487.792454 231.10277 
L 486.421469 230.238212 
L 482.596905 230.181871 
L 477.776587 230.501677 
L 474.851786 230.242326 
L 475.097873 228.925895 
L 475.980583 227.377228 
L 474.611779 226.617454 
L 468.148791 226.524644 
L 466.607719 225.896783 
L 466.211363 223.633082 
L 464.797955 222.983221 
L 462.747657 222.607084 
L 461.749129 221.818178 
L 462.935957 220.115582 
L 465.791599 217.673379 
L 468.301458 215.334006 
L 468.881493 213.807517 
L 468.765024 212.579753 
L 470.062755 210.698131 
L 470.659742 209.116438 
L 466.275924 209.876689 
L 458.650214 212.254844 
L 454.617714 212.985331 
L 456.682463 210.744132 
L 461.164798 207.245497 
L 464.708949 204.149931 
L 467.014805 201.63438 
L 468.202673 199.663775 
L 467.535895 198.658199 
L 464.756908 198.801255 
L 460.92605 199.559137 
L 457.680889 200.04194 
L 456.121735 199.611836 
L 456.09523 198.316206 
L 456.20932 196.929675 
L 454.771776 196.449976 
L 451.299639 197.205449 
L 447.483 198.218943 
L 445.489263 198.162504 
L 444.880313 197.264119 
L 443.46503 196.877543 
L 441.210829 197.044538 
L 440.396567 196.302717 
L 442.088508 193.910492 
L 448.088496 187.230844 
L 450.493987 184.202054 
L 452.153663 181.637026 
L 452.406497 180.021572 
L 450.478297 179.947103 
L 443.778667 181.95223 
L 442.340815 181.610598 
L 442.003091 179.037701 
L 441.251119 178.18622 
L 439.690322 177.967967 
L 437.439697 178.312798 
L 435.056034 178.7954 
L 433.454763 178.67724 
L 433.368161 177.332903 
L 434.815578 174.699469 
L 436.920561 171.467044 
L 438.213883 168.867466 
L 437.458937 167.993865 
L 434.630962 168.933345 
L 430.987792 170.639754 
L 428.004762 171.817996 
L 426.666188 171.553527 
L 427.161369 169.617546 
L 428.563183 166.810014 
L 429.57373 164.321406 
L 429.807376 162.532126 
L 429.743868 161.005719 
L 429.532226 159.60665 
L 428.632608 158.873922 
L 426.689948 159.187996 
L 424.143437 160.142225 
L 421.903697 160.825006 
L 420.682634 160.485586 
L 420.575311 158.985248 
L 422.358968 152.074683 
L 423.34421 145.717752 
L 423.21747 144.053468 
L 421.954436 143.686657 
L 418.042525 144.63406 
L 416.547393 144.599095 
L 415.702821 143.788005 
L 415.396478 142.309829 
L 414.969032 139.061619 
L 414.028815 136.387981 
L 413.730705 132.794645 
L 412.843577 131.95338 
L 411.136909 132.230495 
L 407.068181 133.783121 
L 403.65311 134.549759 
L 402.081318 134.776917 
L 401.032255 134.254058 
L 400.844448 132.44297 
L 401.203578 129.769267 
L 401.243833 127.531912 
L 400.5612 126.37996 
L 397.550573 124.404621 
L 396.242412 124.247092 
L 394.516182 124.801676 
L 392.650374 125.625889 
L 391.169561 125.828486 
L 390.26856 125.042368 
L 388.885141 122.700819 
L 388.401726 121.124484 
L 388.08589 116.66059 
L 387.577957 115.019973 
L 386.622153 114.212331 
L 385.231655 114.24998 
L 383.645755 114.69508 
L 382.168679 114.95079 
L 380.855007 114.89558 
L 378.407497 114.449012 
L 376.809061 115.04712 
L 374.78735 116.608013 
L 372.699472 118.383908 
L 370.828486 119.744243 
L 369.186165 120.640079 
L 367.788144 121.010353 
L 366.593222 120.925369 
L 365.524637 120.546755 
L 363.739483 118.911832 
L 362.556384 118.814959 
L 359.812504 119.657425 
L 358.373653 120.306052 
L 356.888681 121.121447 
L 355.51055 121.683701 
L 354.389602 121.547133 
L 353.589226 120.48418 
L 353.089693 118.49659 
L 352.435693 113.242889 
L 351.878613 111.198579 
L 351.081379 109.858006 
L 350.094381 109.101388 
L 348.942994 108.882424 
L 347.635916 109.208019 
L 346.169473 110.129323 
L 344.546875 111.677145 
L 342.837525 113.638748 
L 341.241894 115.279877 
L 339.961085 115.788321 
L 339.026996 114.946083 
L 338.305676 113.195983 
L 337.628912 111.175342 
L 336.883061 109.356163 
L 336.014326 107.997032 
L 335.033498 107.089142 
L 334.00415 106.371396 
L 332.016177 104.484114 
L 330.878058 104.222808 
L 329.534569 105.070009 
L 326.590051 108.49431 
L 325.265678 109.532951 
L 324.223646 108.89808 
L 323.494381 106.184033 
L 322.375395 97.66053 
L 321.605376 94.392621 
L 320.650482 92.26437 
L 318.512473 89.341972 
L 317.471723 87.398054 
L 316.503072 84.538187 
L 315.534698 81.326318 
L 314.497767 78.447763 
L 313.376737 76.15886 
L 312.14702 74.911758 
L 310.806304 75.004635 
L 309.418504 75.844843 
L 306.661496 77.81573 
L 305.29293 79.003318 
L 303.923336 80.586586 
L 302.554171 82.727771 
L 299.885608 87.478731 
L 298.616287 88.635777 
L 297.376237 88.416255 
L 296.138837 87.071869 
L 294.884129 85.16567 
L 293.610149 83.802213 
L 292.340217 83.952249 
L 289.861274 86.402372 
L 288.624103 87.015839 
L 287.367017 86.927272 
L 286.086336 86.3469 
L 284.791255 85.637039 
L 283.504615 85.243145 
L 282.250839 85.461643 
L 281.020859 85.999212 
L 279.769344 86.177343 
L 278.476213 85.832588 
L 277.155154 85.232626 
L 275.803527 84.400922 
L 272.980169 81.941649 
L 271.528971 80.586508 
L 270.081327 79.418426 
L 268.721504 79.08457 
L 267.551679 80.245376 
L 266.611334 82.984895 
L 265.837439 86.658902 
L 265.036529 89.860956 
L 264.002957 91.332444 
L 262.679161 90.920409 
L 261.195155 89.605748 
L 259.761059 88.685674 
L 258.538678 89.010694 
L 257.546971 90.556218 
L 256.652176 92.514433 
L 255.644381 93.800303 
L 254.412388 93.939301 
L 251.612893 92.71185 
L 250.350634 92.780306 
L 249.17672 93.239633 
L 247.912322 93.311352 
L 246.422098 92.476084 
L 242.999558 89.270016 
L 241.398082 88.222598 
L 240.095014 88.338592 
L 239.102859 89.5808 
L 236.677974 94.916184 
L 235.65745 95.875239 
L 234.308422 95.756088 
L 230.830694 93.184882 
L 229.31038 92.659463 
L 228.186726 93.340704 
L 227.335557 94.79857 
L 224.977042 99.469559 
L 224.04702 100.557862 
L 222.863277 100.956067 
L 221.351999 100.511606 
L 219.479149 99.183918 
L 212.977899 93.450933 
L 211.078715 92.335475 
L 209.537545 92.105641 
L 208.394875 92.810218 
L 207.602269 94.29477 
L 206.360323 97.918633 
L 205.716904 99.622201 
L 204.052705 105.063602 
L 203.305397 106.41428 
L 202.369484 107.368284 
L 200.862391 107.198634 
L 198.620284 105.641543 
L 196.089216 103.601914 
L 193.818759 102.125036 
L 192.164692 101.840024 
L 191.173064 102.779276 
L 190.371262 104.048258 
L 189.332482 104.883161 
L 188.160025 105.481326 
L 187.065781 106.214716 
L 186.16741 107.276019 
L 185.552693 108.797559 
L 185.031945 110.449749 
L 184.123538 111.449147 
L 182.558775 111.3941 
L 180.712104 110.916023 
L 179.364907 111.244136 
L 179.044493 113.153503 
L 179.763781 116.600901 
L 183.679698 129.069786 
L 184.217658 131.948347 
L 184.124744 133.878439 
L 183.267224 134.709648 
L 181.68633 134.540896 
L 179.725896 133.878198 
L 177.976391 133.533483 
L 176.981321 134.215506 
L 176.764427 135.91682 
L 176.788585 137.905063 
L 176.623083 139.619772 
L 176.202587 140.988643 
L 174.964843 143.191869 
L 174.470116 144.430575 
L 173.800767 145.447801 
L 171.491255 146.328059 
L 171.299958 147.891729 
L 172.274306 150.76437 
L 173.635903 154.021154 
L 174.541226 156.709226 
L 174.710288 158.541117 
L 174.097721 159.498422 
L 172.693248 159.601922 
L 168.899975 158.826932 
L 167.201347 158.686016 
L 164.29377 158.964873 
L 162.075858 158.367678 
L 158.655671 156.622684 
L 154.585016 154.308637 
L 151.486119 153.004026 
L 150.938555 154.170321 
L 153.056653 157.825029 
L 156.350205 162.498913 
L 158.826209 166.333135 
L 159.32564 168.311322 
L 158.420239 169.00991 
L 157.63945 169.821619 
L 157.512606 171.202546 
L 157.253668 172.456958 
L 156.24923 173.069296 
L 154.517098 173.078225 
L 149.886825 172.206857 
L 148.190837 172.319421 
L 146.722003 172.632511 
L 144.447552 172.326964 
L 141.322334 171.391526 
L 138.54137 170.767121 
L 137.149523 171.234147 
L 137.114364 172.727848 
L 138.172602 175.015108 
L 140.417522 178.133191 
L 143.247878 181.61701 
L 145.213175 184.42157 
L 145.717612 186.154285 
L 145.368578 187.27583 
L 144.423636 187.985493 
L 140.842104 188.297526 
L 140.355637 189.339755 
L 141.630834 191.519386 
L 143.138275 193.814409 
L 143.330674 195.244953 
L 142.750354 196.182125 
L 143.079429 197.676458 
L 146.498393 202.264933 
L 146.378235 203.427482 
L 142.123288 203.438817 
L 140.577408 203.810942 
L 138.849078 204.098159 
L 136.318635 203.965796 
L 133.996983 203.977855 
L 132.907454 204.672744 
L 132.575034 205.772675 
L 131.752497 206.616955 
L 129.630137 206.805947 
L 126.782087 206.656846 
L 125.301742 207.217036 
L 126.637534 209.157301 
L 129.652336 211.871006 
L 132.114701 214.272421 
L 133.179741 215.983926 
L 133.429665 217.301954 
L 133.271048 218.42678 
L 132.461416 219.260881 
L 129.620095 220.425407 
L 127.675593 220.810075 
L 124.106455 220.548759 
L 119.065936 219.738191 
L 115.291953 219.495937 
L 116.167664 221.113043 
L 121.933929 224.582973 
L 128.751101 228.360693 
L 132.554318 230.926488 
L 132.763259 232.134195 
L 131.624583 232.855956 
L 131.527558 233.950847 
L 134.829815 237.298456 
L 134.067272 238.141583 
L 127.143699 238.151995 
L 126.151685 238.97906 
L 126.220527 240.13376 
L 125.111377 240.937474 
L 123.498978 241.607479 
L 123.402413 242.719833 
L 124.740882 244.222342 
L 125.645919 245.587612 
L 125.027827 246.540448 
L 123.885827 247.364742 
L 123.957787 248.500907 
L 126.4159 251.302984 
L 126.936671 252.513823 
L 127.211837 253.660472 
L 126.67767 254.62652 
L 125.048024 255.367937 
L 123.752737 256.195091 
L 124.145732 257.366854 
L 127.635257 260.182849 
L 128.246486 261.353475 
L 127.191775 262.229971 
L 125.573981 263.02511 
L 125.152403 264.027397 
L 126.467594 265.29625 
L 128.146229 266.599425 
L 128.350982 267.674688 
L 126.795539 268.511804 
L 124.448321 269.266426 
L 118.166922 270.677503 
L 117.133863 271.666762 
L 121.339034 273.200068 
L 128.433398 274.95572 
L 132.98305 276.394991 
L 132.51068 277.359464 
L 129.838773 278.159553 
L 128.263422 279.069273 
L 128.941088 280.143045 
L 131.607946 281.323843 
L 138.670109 283.664439 
L 139.231174 284.650026 
L 135.612555 285.486994 
L 129.129397 286.288864 
L 123.362238 287.185482 
L 121.280282 288.209287 
L 123.118654 289.29459 
L 126.468301 290.36183 
L 127.339865 291.395493 
L 122.396043 292.472067 
L 113.260131 293.67387 
L 104.927699 294.970861 
L 100.686824 296.25745 
L 99.917441 297.479266 
L 101.277619 298.625979 
L 103.645709 299.710082 
L 106.405769 300.745218 
L 109.67814 301.717177 
L 117.381647 303.460611 
L 119.317818 304.409774 
L 118.457326 305.568461 
L 115.953441 306.885652 
L 114.582449 308.126885 
L 115.771185 309.126127 
L 121.554884 310.695873 
L 123.178365 311.581673 
L 123.567961 312.605009 
L 123.696309 313.659848 
L 124.898488 315.63262 
L 124.281955 316.795144 
L 122.008866 318.229006 
L 118.66528 319.869392 
L 115.737934 321.483224 
L 115.435264 322.672251 
L 118.545294 323.242394 
L 122.778572 323.562661 
L 125.177992 324.190905 
L 124.928886 325.326966 
L 122.760783 326.869429 
L 115.743165 330.640532 
L 113.289992 332.357793 
L 113.165186 333.564085 
L 113.935235 334.559757 
L 112.927875 335.988781 
L 107.057696 339.901796 
L 105.000396 341.687354 
L 103.280603 343.411714 
L 102.88397 344.79212 
L 105.36785 345.355556 
L 118.701031 345.068428 
L 120.854114 345.581375 
L 121.354102 346.599639 
L 120.967244 347.906029 
L 121.12359 349.040953 
L 122.204793 349.863288 
L 122.598129 350.91502 
L 120.841407 352.72909 
L 118.383878 354.826158 
L 118.52443 356.005129 
L 122.58179 355.71654 
L 128.17335 354.789629 
L 131.684275 354.600303 
L 132.24411 355.537772 
L 132.030836 356.785193 
L 132.598931 357.720248 
L 133.046752 358.703347 
L 132.272567 360.205961 
L 129.397872 363.847344 
L 128.465456 365.483425 
L 127.887742 366.978681 
L 128.029691 368.156755 
L 129.428458 368.749413 
L 131.67787 368.922291 
L 133.092089 369.473393 
L 132.402451 371.046363 
L 127.721191 375.923389 
L 127.175156 377.502827 
L 129.223428 377.741337 
L 132.516533 377.294907 
L 134.922743 377.283082 
L 136.95996 378.710388 
L 138.54847 379.091567 
L 139.822307 379.63556 
L 139.889562 380.866774 
L 138.039571 384.535894 
L 137.580794 386.126005 
L 138.035466 387.173954 
L 139.126628 387.828842 
L 140.068303 388.569426 
L 140.584474 389.57576 
L 141.367259 390.411149 
L 143.059263 390.647324 
L 145.211794 390.558485 
L 146.699337 390.890215 
L 146.884773 392.094951 
L 145.988183 394.055731 
L 144.426939 396.509947 
L 142.556998 399.223745 
L 141.424907 401.453819 
L 142.55051 402.073096 
L 145.991607 400.975529 
L 149.722336 399.609037 
L 151.665639 399.537002 
L 151.548745 401.0199 
L 150.718934 403.071864 
L 150.731216 404.491508 
L 151.991226 404.931094 
L 153.544242 405.123142 
L 155.632341 406.297099 
L 157.512329 406.173698 
L 159.653488 405.804372 
L 160.875821 406.193525 
L 160.84277 407.662886 
L 159.770277 410.063174 
L 157.685806 413.404465 
L 155.158613 417.207643 
L 153.3196 420.455917 
L 151.378794 425.505551 
L 150.036923 428.444113 
L 149.58084 430.583856 
L 151.104807 430.831492 
L 153.917231 429.796391 
L 156.424807 429.017401 
L 157.811535 429.327321 
L 158.353522 430.485734 
L 158.508855 432.051383 
L 158.293802 435.793841 
L 158.070731 437.827549 
L 157.417722 442.21203 
L 157.596764 443.892766 
L 158.49802 444.781322 
L 159.963943 445.027475 
L 161.538905 445.133127 
L 162.919009 445.44849 
L 163.973657 446.136391 
L 164.506588 447.446311 
L 164.5291 449.388213 
L 164.090297 453.961257 
L 164.169509 455.928446 
L 164.67162 457.385867 
L 165.869083 457.96177 
L 167.996288 457.315567 
L 170.57897 456.028949 
L 172.919241 455.014611 
L 176.877315 453.842423 
L 180.916183 452.416766 
L 182.571685 452.16876 
L 183.835436 452.464246 
L 184.589568 453.498621 
L 185.790367 458.284811 
L 186.630036 461.541556 
L 187.344934 462.739492 
L 188.501612 463.238593 
L 191.546546 463.008933 
L 192.684778 463.509146 
L 193.663885 464.277429 
L 194.917149 464.574992 
L 196.602153 464.104879 
L 200.330166 462.422922 
L 201.886069 462.084062 
L 203.056296 462.436211 
L 203.759698 463.66407 
L 204.051803 465.700886 
L 204.188598 476.419363 
L 204.359548 478.98411 
L 204.936613 480.758503 
L 206.094574 481.330581 
L 207.760064 480.801105 
L 211.620814 478.446885 
L 212.906105 478.656169 
L 213.330252 480.853619 
L 213.248254 484.30394 
L 213.379112 487.345687 
L 214.260515 488.643022 
L 215.879736 488.134088 
L 217.777221 486.88471 
L 219.563219 485.859582 
L 221.099171 485.435689 
L 223.644324 485.923101 
L 225.045381 485.798293 
L 226.545112 485.37211 
L 228.083479 484.800452 
L 229.657824 484.082844 
L 231.134154 483.613945 
L 232.356722 483.888284 
L 233.399766 484.720954 
L 234.483427 485.443117 
L 237.970124 486.899996 
L 239.127201 487.415806 
L 240.362275 487.659904 
L 241.733305 487.399778 
L 243.169161 486.866224 
L 244.552882 486.490696 
L 247.194877 486.140641 
L 248.571093 485.696293 
L 251.329405 484.656458 
L 252.660671 484.284446 
L 254.022066 483.733124 
L 255.459838 482.763148 
L 258.359667 480.458889 
L 259.654627 479.99051 
L 260.79269 480.337971 
L 261.78907 481.503654 
L 264.634135 486.390317 
L 265.730946 487.271225 
L 268.111903 487.863055 
L 269.28236 488.329688 
L 270.496565 488.477123 
L 271.808622 487.800335 
L 273.178929 486.515263 
L 274.547636 485.079084 
L 275.869277 483.919015 
L 277.100153 483.556254 
L 279.434104 484.182881 
L 280.675701 483.558953 
L 283.221499 480.900336 
L 284.38957 480.95693 
L 285.467604 482.786503 
L 287.584012 489.182703 
L 288.718021 491.832567 
L 289.907105 493.602279 
L 291.131759 494.659933 
L 292.379106 494.993775 
L 293.637187 494.436137 
L 294.889541 493.070282 
L 298.522068 487.546459 
L 299.698816 486.172672 
L 300.870404 485.18899 
L 302.038262 484.429932 
L 303.207253 483.910803 
L 305.565983 483.579158 
L 306.726007 483.122958 
L 307.859516 482.33763 
L 308.956374 481.166069 
L 309.997943 479.460984 
L 310.960379 477.056793 
L 313.523777 468.364328 
L 314.485728 467.080891 
L 315.51694 466.52142 
L 318.653533 465.402162 
L 319.722769 465.239058 
L 320.842683 465.421977 
L 322.009558 465.88355 
L 323.251752 466.768023 
L 325.914996 469.343417 
L 327.238052 470.426539 
L 328.538767 471.300962 
L 329.747016 471.619909 
L 330.806474 471.151306 
L 331.783502 470.29409 
L 332.818463 469.75082 
L 333.968997 469.759278 
L 337.559541 470.290843 
L 338.860684 470.851789 
L 340.301211 471.928975 
L 345.137096 476.677085 
L 346.538867 477.31676 
L 347.682737 476.997097 
L 348.578485 475.81765 
L 351.530707 469.458497 
L 352.421218 468.472186 
L 353.573823 468.308679 
L 355.006974 468.972672 
L 356.620925 470.123152 
L 360.06492 472.853208 
L 361.691438 473.855061 
L 363.019662 473.998546 
L 363.927277 473.006686 
L 364.39496 470.891142 
L 364.519132 467.958972 
L 364.49263 461.68013 
L 364.957844 459.840417 
L 366.011696 459.450283 
L 368.927254 460.524175 
L 370.295258 460.809145 
L 372.879177 460.973671 
L 374.112832 460.903651 
L 375.43709 461.012617 
L 376.915304 461.424036 
L 378.495899 462.017462 
L 380.25062 462.929162 
L 382.268626 464.321664 
L 384.454724 465.985785 
L 386.497273 467.306346 
L 388.003442 467.550025 
L 388.887652 466.603218 
L 389.416435 465.010341 
L 389.799525 463.181437 
L 389.995068 461.05167 
L 390.057998 456.350327 
L 390.437369 454.672266 
L 391.249822 453.759088 
L 392.529535 453.636215 
L 394.303863 454.315971 
L 398.816724 457.117657 
L 400.869156 458.113553 
L 406.331806 459.784928 
L 407.882845 459.872651 
L 408.960345 459.239081 
L 409.663568 458.057167 
L 410.216868 456.671601 
L 410.949782 455.559155 
L 413.111377 454.32936 
L 413.543869 452.82322 
L 413.081342 450.12782 
L 411.400234 443.890082 
L 411.343756 441.881114 
L 412.095515 440.94222 
L 413.102533 440.332421 
L 413.828627 439.368132 
L 415.018407 437.136564 
L 416.290964 435.040679 
L 417.040833 434.137545 
L 418.086211 433.581374 
L 419.629692 433.591617 
L 421.948611 434.461309 
L 424.804456 435.891447 
L 427.293019 436.861324 
L 430.589535 436.859425 
L 433.254432 437.911134 
L 437.009026 440.06301 
L 440.579851 441.95047 
L 442.766473 442.349588 
L 443.543078 441.287375 
L 443.804562 437.895829 
L 443.72759 436.025471 
L 442.478526 431.309791 
L 442.781333 429.878046 
L 444.755546 430.01401 
L 451.164951 432.442997 
L 452.966965 432.321096 
L 452.69088 430.338356 
L 451.483318 427.565767 
L 451.282253 425.706993 
L 452.395917 424.99196 
L 453.256089 424.057181 
L 452.693509 421.937578 
L 451.409037 419.253154 
L 448.620055 412.295236 
L 447.810041 410.137191 
L 447.348923 408.278877 
L 447.565714 406.960197 
L 449.142139 406.673854 
L 452.412364 407.628715 
L 456.65349 409.246714 
L 460.222417 410.311853 
L 461.913529 409.98238 
L 462.751044 407.498968 
L 463.764668 406.674133 
L 466.545265 405.512011 
L 466.749262 404.129482 
L 464.756976 401.325022 
L 461.270308 397.606907 
L 458.534313 394.436629 
L 458.610678 393.083385 
L 461.970991 393.765519 
L 473.590041 397.930901 
L 478.260245 399.20983 
L 480.279099 398.875248 
L 479.626144 396.981241 
L 477.766145 394.423979 
L 476.518077 392.249352 
L 476.045073 390.531975 
L 474.991121 388.516487 
L 470.923653 383.530871 
L 467.04106 378.803305 
L 466.557138 377.231861 
L 467.285379 376.277578 
L 467.183608 374.914616 
L 465.390113 372.747279 
L 463.118735 370.388403 
L 461.758939 368.495822 
L 462.151702 367.434321 
L 464.774938 367.380203 
L 474.325418 369.055008 
L 478.091565 369.364952 
L 479.833147 368.773001 
L 480.154423 367.573823 
L 479.728068 366.072155 
L 478.637354 364.317238 
L 477.219929 362.455825 
L 476.198032 360.773485 
L 475.573777 357.998241 
L 474.48303 356.3416 
L 472.51171 354.390334 
L 471.065468 352.656241 
L 471.447713 351.577045 
L 476.90095 349.733201 
L 478.198406 348.91402 
L 478.705535 347.836814 
L 478.313011 346.484299 
L 478.147401 345.209019 
L 479.346862 344.336685 
L 481.268837 343.657686 
L 482.232108 342.691899 
L 481.826437 341.347391 
L 480.339056 338.512608 
L 479.065177 336.982713 
L 475.017634 333.62719 
L 474.160014 332.263715 
L 474.483374 331.180094 
L 475.604549 330.26969 
L 478.751051 328.6007 
L 479.307143 327.537924 
L 478.331137 326.175634 
L 476.262462 324.624898 
L 474.697301 323.193735 
L 475.038968 322.116134 
L 476.609025 321.242232 
L 476.630777 320.101486 
L 472.650064 318.343281 
L 459.042859 314.180325 
L 455.109784 312.619842 
L 453.611982 311.426093 
L 453.516082 310.425707 
L 455.024783 308.621702 
L 454.581066 307.582141 
L 453.153466 306.452364 
L 451.977866 305.364763 
L 451.650949 304.365985 
L 452.545524 303.470015 
L 455.851229 302.741972 
L 461.547061 302.135727 
L 466.443433 301.410882 
L 467.68661 300.424315 
L 467.020939 299.329286 
L 469.254078 298.367799 
L 474.349966 297.48494 
L 478.558179 296.512628 
L 479.050298 295.397685 
L 474.953919 294.192478 
L 466.686238 292.986616 
L 457.669069 291.877885 
L 451.972124 290.88 
L 451.972124 290.88 
" clip-path="url(#p4c4e25a241)" style="fill: none; stroke: #0000ff; stroke-width: 1.5; stroke-linecap: square"/>
   </g>
   <g id="line2d_16">
    <path d="M 434.631184 290.88 
L 433.184906 290.032497 
L 426.770741 288.455434 
L 427.033362 287.640508 
L 431.874658 286.681455 
L 449.228321 284.253708 
L 454.871824 283.028146 
L 456.054388 281.979338 
L 453.701195 281.132722 
L 446.321637 279.721662 
L 445.100823 278.885673 
L 445.515381 277.922897 
L 445.642656 276.980549 
L 443.772156 276.232523 
L 439.871734 275.719306 
L 431.617261 274.887923 
L 429.639114 274.282144 
L 430.492019 273.332575 
L 437.635506 270.624045 
L 437.80338 269.705807 
L 433.993678 269.399423 
L 429.509168 269.247984 
L 427.397461 268.754254 
L 427.14389 267.962736 
L 425.996481 266.503253 
L 426.767313 265.522479 
L 428.729754 264.292636 
L 429.762723 263.226657 
L 428.863728 262.554691 
L 427.193019 262.060527 
L 425.974001 261.484053 
L 425.201854 260.817644 
L 424.600685 260.118191 
L 424.298155 258.509677 
L 422.839421 258.040908 
L 417.053988 257.928329 
L 416.088777 257.39122 
L 416.400948 256.501833 
L 416.377479 255.702934 
L 415.185052 255.24861 
L 413.264399 255.028434 
L 411.767233 254.69963 
L 411.691455 253.937233 
L 413.766079 251.670038 
L 413.474815 250.958829 
L 412.33738 250.539659 
L 411.400763 250.062173 
L 411.391117 249.262125 
L 412.601149 248.013327 
L 414.996087 246.303107 
L 421.875293 241.963569 
L 424.760742 239.932738 
L 425.438557 238.740347 
L 423.397556 238.641603 
L 420.029896 239.117615 
L 417.49901 239.284514 
L 416.963635 238.627109 
L 419.25414 235.830032 
L 419.728819 234.701416 
L 419.35104 233.951568 
L 418.402582 233.468073 
L 416.712079 233.34484 
L 411.31489 234.143952 
L 410.11367 233.853952 
L 411.040518 232.504583 
L 412.657343 230.782385 
L 412.998254 229.692152 
L 411.587044 229.514551 
L 409.722159 229.595961 
L 409.055445 229.050219 
L 410.019623 227.610363 
L 411.655644 225.773236 
L 412.91361 224.117701 
L 413.449727 222.850368 
L 413.198491 222.026864 
L 412.146556 221.674365 
L 410.892699 221.453436 
L 410.546558 220.694005 
L 411.619973 219.057381 
L 413.298941 217.016336 
L 414.014727 215.549518 
L 412.758877 215.329497 
L 407.398281 216.811496 
L 406.393759 216.490059 
L 407.312576 214.874452 
L 411.90032 209.65418 
L 413.74353 207.285812 
L 414.363247 205.748179 
L 413.371655 205.3555 
L 410.959855 206.01275 
L 408.024366 207.094607 
L 405.538915 207.884089 
L 403.822912 208.125366 
L 402.708903 207.925588 
L 402.073291 207.363815 
L 401.380618 205.783835 
L 400.019279 204.739136 
L 399.93361 203.726356 
L 400.827968 200.763322 
L 400.447891 199.964752 
L 398.688668 200.368561 
L 396.05226 201.575208 
L 394.110574 202.204782 
L 394.171877 201.047281 
L 397.662499 195.557434 
L 398.163688 193.90465 
L 397.724201 193.123371 
L 397.382876 192.243565 
L 397.607551 190.80437 
L 398.076736 189.10312 
L 398.153044 187.768752 
L 397.331318 187.327453 
L 395.571818 187.853359 
L 391.171452 189.91809 
L 389.34435 190.61411 
L 387.946749 190.878792 
L 387.322926 190.319638 
L 387.898708 188.434919 
L 389.236504 185.664717 
L 390.149763 183.320547 
L 390.182965 181.941592 
L 390.043082 180.743655 
L 390.579321 178.73527 
L 393.317005 172.602681 
L 393.700028 170.645755 
L 392.507035 170.602576 
L 389.908924 172.332297 
L 386.782594 174.790549 
L 384.32645 176.465746 
L 383.168261 176.510483 
L 383.001097 175.265319 
L 383.08241 173.670523 
L 382.84466 172.479405 
L 382.145144 171.903186 
L 381.140155 171.749312 
L 379.966154 171.842593 
L 378.620114 172.196805 
L 377.170234 172.723624 
L 375.887014 173.034412 
L 374.968837 172.826489 
L 372.942101 171.127411 
L 372.131879 170.76655 
L 371.035148 170.862184 
L 369.408033 171.824224 
L 367.609076 173.105102 
L 366.374887 173.502771 
L 365.821144 172.786041 
L 365.437975 171.772052 
L 364.803219 171.174163 
L 363.784972 171.240349 
L 361.333639 172.159986 
L 360.547581 171.857394 
L 360.121252 170.892869 
L 359.500968 168.47017 
L 358.111412 165.559774 
L 358.032795 163.775344 
L 358.374795 159.030959 
L 358.341413 156.996607 
L 357.904112 155.77926 
L 357.050505 155.446287 
L 356.025616 155.496096 
L 355.148036 155.226715 
L 354.504194 154.422848 
L 353.917138 153.471066 
L 353.189457 152.833605 
L 352.340126 152.480947 
L 351.54268 152.000337 
L 350.892822 151.144594 
L 350.302532 150.117999 
L 349.646481 149.237123 
L 348.884401 148.616803 
L 345.6005 146.69148 
L 343.785793 146.201658 
L 343.023139 145.520387 
L 342.509658 144.049404 
L 342.136743 142.082062 
L 341.632448 140.466849 
L 340.817211 139.822039 
L 339.677432 140.25972 
L 338.333431 141.43785 
L 335.63535 144.039292 
L 333.224939 145.855904 
L 330.972849 147.277698 
L 329.932191 147.711958 
L 329.080741 147.380518 
L 328.50766 145.82985 
L 327.344517 138.03707 
L 326.732252 136.238425 
L 325.953433 135.179058 
L 325.007317 134.936813 
L 323.927657 135.413193 
L 322.745334 136.511398 
L 320.252926 139.768345 
L 317.855479 142.992842 
L 312.510574 148.875321 
L 311.550869 149.525545 
L 310.645967 149.760455 
L 309.821201 149.258865 
L 307.482614 145.785922 
L 306.614783 145.413089 
L 305.699036 145.651302 
L 304.744687 146.529844 
L 302.832346 148.997977 
L 301.920391 149.801637 
L 301.041965 150.047782 
L 300.186956 149.729348 
L 299.339918 149.016498 
L 298.488166 148.141391 
L 297.623157 147.429097 
L 294.97787 146.21533 
L 294.084704 145.612916 
L 293.187363 145.249943 
L 292.295877 145.411233 
L 291.423134 146.222885 
L 289.747542 148.910613 
L 288.919698 149.934531 
L 288.081292 150.511034 
L 287.223031 150.623073 
L 286.33149 150.194844 
L 285.39444 149.19505 
L 283.37856 145.939404 
L 282.33688 144.285962 
L 281.296096 142.870339 
L 279.209311 140.515749 
L 277.087958 138.403754 
L 276.044352 137.658357 
L 275.083643 137.626521 
L 274.237803 138.444127 
L 273.457768 139.659457 
L 272.647796 140.584877 
L 271.750414 140.887974 
L 270.758924 140.600124 
L 269.668891 139.761686 
L 267.345287 137.502781 
L 266.304639 137.149259 
L 265.412146 137.592889 
L 264.625757 138.548611 
L 263.903444 139.766333 
L 263.251918 141.254054 
L 262.706039 143.146678 
L 262.224515 145.227251 
L 261.641466 146.767694 
L 260.86194 147.415056 
L 259.90497 147.31761 
L 258.784362 146.587989 
L 254.821379 142.466158 
L 253.810718 142.35854 
L 253.077344 143.239606 
L 252.006936 146.24595 
L 250.511474 150.71117 
L 249.52017 153.458043 
L 248.291166 157.992185 
L 247.716667 158.951835 
L 246.97253 159.423827 
L 246.06924 159.463561 
L 243.061049 158.884221 
L 239.903226 158.103165 
L 238.92889 158.067945 
L 238.113665 158.414736 
L 237.362104 158.906923 
L 236.397333 158.916127 
L 234.985952 157.95083 
L 231.269454 154.237259 
L 229.557052 152.793172 
L 228.06715 151.867428 
L 226.717477 151.268882 
L 223.017988 150.337 
L 220.192698 149.147452 
L 218.891154 148.805654 
L 217.700914 148.691603 
L 216.697466 148.932307 
L 215.83812 149.436743 
L 214.890335 149.785317 
L 213.838099 149.957054 
L 212.906693 150.34431 
L 212.079351 150.910088 
L 211.13624 151.282092 
L 208.928906 151.519278 
L 206.862354 152.021704 
L 205.483754 151.748974 
L 201.742727 149.783475 
L 200.199485 149.349459 
L 199.166406 149.692137 
L 197.607598 151.123337 
L 196.623227 151.544672 
L 195.441187 151.694951 
L 194.080948 151.611645 
L 192.562669 151.331431 
L 189.061908 150.224812 
L 187.504176 149.968895 
L 186.444853 150.379933 
L 185.859238 151.401686 
L 185.602917 152.829474 
L 185.62463 154.584298 
L 185.825243 156.531995 
L 185.824013 158.203236 
L 185.283286 159.203473 
L 184.430116 159.826036 
L 183.842169 160.75993 
L 183.93391 162.472087 
L 184.832759 165.078998 
L 186.159157 168.120037 
L 186.940123 170.496617 
L 186.541477 171.535807 
L 184.153237 171.882431 
L 183.145693 172.271637 
L 182.503164 173.049754 
L 182.591133 174.580224 
L 183.725099 177.157414 
L 187.189636 183.366037 
L 188.060389 185.534895 
L 188.292465 187.046772 
L 188.14366 188.172474 
L 187.730197 189.036003 
L 186.769807 190.625001 
L 186.444998 191.556703 
L 186.230434 192.581428 
L 186.163369 193.728902 
L 186.316442 195.058434 
L 187.181673 198.149308 
L 186.943523 199.093738 
L 185.470519 198.99728 
L 182.78459 197.916769 
L 176.104086 194.831018 
L 173.824085 194.216538 
L 173.165064 194.910666 
L 173.952386 196.729285 
L 176.521413 201.039077 
L 177.309075 202.769108 
L 178.370845 205.779189 
L 179.126262 208.492578 
L 180.251916 210.348638 
L 183.914327 214.935175 
L 184.031458 216.011716 
L 181.870979 215.564311 
L 178.175317 214.140268 
L 174.812089 212.987953 
L 173.551684 213.228206 
L 174.637362 214.959379 
L 179.217845 219.818291 
L 183.554779 224.347775 
L 184.669511 225.928683 
L 183.670973 226.260149 
L 177.028124 224.336594 
L 174.768111 224.034849 
L 173.214095 225.119215 
L 171.381091 225.109337 
L 169.064774 224.86903 
L 168.067689 225.338738 
L 169.051326 226.823473 
L 170.766589 228.652805 
L 171.816423 230.122251 
L 172.012092 231.15586 
L 171.760192 231.967329 
L 171.121022 232.595224 
L 169.904947 232.960653 
L 168.266589 233.146842 
L 166.797622 233.427855 
L 166.235935 234.124605 
L 167.212166 235.490052 
L 172.226238 239.444138 
L 173.191106 240.725934 
L 172.371117 241.268535 
L 171.071986 241.628384 
L 169.226651 242.67865 
L 164.848542 243.737947 
L 164.134979 244.388157 
L 163.064333 245.827908 
L 162.762165 246.630979 
L 162.582047 247.474412 
L 161.731027 248.101637 
L 159.830532 248.407555 
L 158.291825 248.846674 
L 159.160379 250.02593 
L 162.017204 251.774003 
L 163.745185 253.156811 
L 162.23165 253.604867 
L 154.632492 253.330694 
L 151.435243 253.421085 
L 149.026047 253.750572 
L 147.852491 254.414378 
L 148.451227 255.517636 
L 151.004412 257.068574 
L 155.093654 258.933973 
L 159.621276 260.841121 
L 163.078315 262.457233 
L 164.075751 263.513332 
L 162.50103 264.034125 
L 159.919101 264.375613 
L 158.589018 264.985246 
L 158.972426 265.923686 
L 159.539761 266.88784 
L 158.335745 267.540876 
L 155.035171 267.863037 
L 146.044938 268.264629 
L 142.467953 268.681029 
L 140.458066 269.358537 
L 140.233626 270.296708 
L 141.185537 271.385006 
L 142.431361 272.495299 
L 143.193917 273.53351 
L 142.875552 274.444276 
L 141.088602 275.208403 
L 134.856549 276.562283 
L 132.551337 277.362843 
L 132.158365 278.337988 
L 133.675456 279.452173 
L 136.381649 280.623555 
L 140.888814 282.816652 
L 144.019293 283.91102 
L 147.828593 284.993439 
L 150.352509 285.985108 
L 151.536771 286.908332 
L 152.382303 287.809414 
L 152.68984 288.691613 
L 150.238918 290.434829 
L 152.719506 291.317553 
L 160.237835 292.123426 
L 168.570414 292.824525 
L 172.873754 293.510019 
L 171.745114 294.292995 
L 167.688366 295.189054 
L 164.008534 296.120274 
L 162.356446 297.003692 
L 162.555496 297.811181 
L 163.308366 298.584391 
L 163.159464 299.407142 
L 161.901835 300.310817 
L 160.057548 301.275862 
L 158.550525 302.236456 
L 157.86599 303.143111 
L 159.030258 303.882634 
L 164.565274 304.975415 
L 165.059326 305.731273 
L 163.290672 306.75442 
L 161.016719 307.864783 
L 159.545363 308.898225 
L 159.046509 309.816188 
L 159.424942 310.614343 
L 160.570235 311.292998 
L 162.113813 311.895943 
L 164.09675 312.408929 
L 166.836708 312.769476 
L 169.983344 313.025163 
L 172.176911 313.417308 
L 172.198637 314.195036 
L 169.989305 315.411422 
L 166.702275 316.875935 
L 164.145974 318.232012 
L 163.875553 319.13126 
L 167.203299 320.064874 
L 166.953649 320.9516 
L 165.442072 322.148044 
L 164.551934 323.212837 
L 165.125455 323.920041 
L 168.045804 324.846255 
L 168.970441 325.43125 
L 168.828038 326.305962 
L 167.043053 327.65681 
L 163.908511 329.430659 
L 161.126917 331.143499 
L 160.836037 332.132206 
L 163.320849 332.257351 
L 166.357569 332.175503 
L 167.223289 332.766519 
L 165.150839 334.330937 
L 161.714378 336.392364 
L 159.215898 338.178492 
L 158.796061 339.265682 
L 159.887872 339.816096 
L 161.11543 340.30548 
L 161.651663 341.041638 
L 161.641194 342.926417 
L 162.186704 344.605022 
L 161.943601 345.657566 
L 161.356274 346.862409 
L 161.518039 347.761952 
L 163.284468 347.969758 
L 166.090782 347.699275 
L 168.166943 347.719459 
L 167.858597 348.798725 
L 164.874398 351.124787 
L 160.529404 354.140076 
L 156.838987 356.91394 
L 155.002492 358.850759 
L 154.481075 360.174191 
L 153.492279 361.745806 
L 150.943714 364.131318 
L 147.816663 366.861391 
L 146.098528 368.910008 
L 146.619333 369.803721 
L 148.680203 369.86664 
L 153.571582 369.490185 
L 155.342612 369.634668 
L 157.772773 370.505252 
L 158.985062 370.924336 
L 160.411589 371.20384 
L 162.372666 371.144793 
L 167.01021 370.508264 
L 168.016576 370.969858 
L 167.990198 372.081859 
L 167.846622 373.278767 
L 168.347579 374.064338 
L 169.55527 374.380408 
L 170.978664 374.538903 
L 172.172494 374.837819 
L 173.163774 375.264582 
L 174.270439 375.60192 
L 175.854752 375.589492 
L 178.253753 374.971597 
L 183.946625 372.969881 
L 184.458031 373.64781 
L 182.111671 376.489039 
L 178.007272 380.73369 
L 174.529645 384.582465 
L 173.551786 386.545213 
L 175.068889 386.552103 
L 180.061918 384.910002 
L 181.833415 384.629817 
L 183.232992 384.636327 
L 184.802886 384.481221 
L 186.558594 384.145588 
L 187.676715 384.338904 
L 187.774674 385.418268 
L 187.744993 386.621879 
L 188.505247 387.126524 
L 191.247906 386.994531 
L 192.356889 387.147517 
L 193.187702 387.552181 
L 193.818305 388.143394 
L 194.530326 388.654747 
L 195.583555 388.827946 
L 199.654615 388.351882 
L 200.775062 388.399844 
L 201.65016 388.691092 
L 202.025894 389.503858 
L 201.757732 391.012614 
L 201.231888 392.824232 
L 201.189646 394.135498 
L 201.907685 394.619676 
L 202.771165 394.937893 
L 202.895779 396.092049 
L 201.097432 400.837536 
L 200.856212 402.499936 
L 201.834368 402.728887 
L 203.531755 402.076675 
L 204.823294 401.892179 
L 204.991012 403.086761 
L 203.847089 407.412479 
L 204.248467 408.379694 
L 205.676412 408.014233 
L 211.339134 404.899565 
L 215.182704 403.982062 
L 216.739551 403.238855 
L 218.018071 402.867004 
L 218.672985 403.389439 
L 218.675422 404.885329 
L 218.338043 406.921853 
L 218.234485 408.642917 
L 218.852711 409.278586 
L 220.23156 408.723187 
L 222.07894 407.393286 
L 227.849315 402.723851 
L 229.244586 401.944742 
L 230.246469 401.803835 
L 231.694512 402.45171 
L 232.608117 402.434815 
L 233.612996 402.241159 
L 234.5067 402.234643 
L 235.268896 402.461721 
L 235.937696 402.861061 
L 236.469984 403.523296 
L 236.832687 404.524897 
L 237.289172 407.127986 
L 237.677101 408.148406 
L 238.366876 408.564842 
L 239.350757 408.364741 
L 241.558034 407.39131 
L 242.507101 407.205401 
L 243.342232 407.258257 
L 244.077346 407.530404 
L 244.751361 407.942905 
L 245.486072 408.215679 
L 247.125306 408.343026 
L 248.623728 408.793215 
L 249.409339 408.921036 
L 250.046686 409.43244 
L 251.027991 411.281988 
L 251.671917 411.818859 
L 253.154143 412.363525 
L 253.736616 413.104257 
L 254.149105 414.376392 
L 254.713521 417.868803 
L 254.988998 419.734076 
L 255.369528 421.32674 
L 255.94828 422.31627 
L 256.745017 422.593469 
L 257.695371 422.334158 
L 258.697401 421.866066 
L 259.639712 421.583796 
L 261.372417 421.529824 
L 262.31751 421.172391 
L 263.358365 420.395719 
L 265.50841 418.386271 
L 266.451318 417.862956 
L 267.237105 418.012897 
L 267.846661 418.986888 
L 269.324053 424.036595 
L 270.589428 426.393907 
L 271.94949 428.499477 
L 272.703691 429.202161 
L 273.557066 429.316028 
L 274.544223 428.536725 
L 275.628556 427.002384 
L 276.722756 425.245436 
L 277.751012 423.812523 
L 279.630663 421.950479 
L 281.42524 420.407345 
L 282.302287 419.678174 
L 284.944878 416.616245 
L 285.712252 416.744207 
L 286.432192 417.569998 
L 287.860592 419.926858 
L 288.615119 420.722789 
L 289.403608 420.965331 
L 290.212643 420.739217 
L 291.024705 420.321366 
L 291.826181 420.100061 
L 292.615214 420.353022 
L 294.196401 421.598672 
L 294.998966 421.805901 
L 295.800437 421.226279 
L 296.585086 419.7399 
L 298.089831 416.326954 
L 298.829719 415.2604 
L 300.291577 413.622629 
L 301.014412 412.939538 
L 301.745217 412.552759 
L 303.975059 412.261654 
L 306.15688 411.494703 
L 307.545692 410.460523 
L 311.5038 406.801462 
L 312.214795 406.694554 
L 312.982625 406.958845 
L 313.795482 407.476015 
L 315.559697 409.175997 
L 317.445776 411.268504 
L 318.511286 412.837847 
L 322.150508 419.026102 
L 323.343189 420.732038 
L 324.476884 422.065396 
L 325.473719 422.717767 
L 326.292015 422.568032 
L 326.965755 421.820225 
L 327.593897 420.918236 
L 328.310193 420.396954 
L 329.204534 420.570589 
L 330.296926 421.462413 
L 338.297524 430.490007 
L 339.725715 432.034546 
L 341.086724 433.294367 
L 342.3078 434.065322 
L 343.301076 434.114956 
L 344.047922 433.431672 
L 344.680764 432.43729 
L 345.363889 431.610673 
L 346.234761 431.320467 
L 347.448436 431.954982 
L 350.758664 435.41623 
L 352.172991 436.420177 
L 352.99548 435.891055 
L 353.248662 433.964756 
L 353.287302 431.573206 
L 353.645345 430.011654 
L 354.607916 429.905481 
L 355.90559 430.561722 
L 357.138539 431.037489 
L 358.174914 431.047748 
L 358.969443 430.515602 
L 359.490737 429.399244 
L 359.942797 428.158925 
L 360.660408 427.499234 
L 361.821714 427.75914 
L 363.302428 428.644612 
L 364.705709 429.336139 
L 365.740307 429.270612 
L 366.514516 428.690901 
L 367.205507 427.95697 
L 367.737684 426.933737 
L 368.442547 424.282319 
L 369.182435 423.689805 
L 370.307404 423.782627 
L 371.540053 424.047617 
L 372.512132 423.843872 
L 373.071569 422.932822 
L 373.425805 421.690612 
L 373.855903 420.594459 
L 376.491441 416.099932 
L 376.777628 414.866678 
L 376.939956 413.467 
L 377.195946 412.22951 
L 377.667492 411.326024 
L 378.930326 410.004539 
L 379.260421 408.926344 
L 379.20496 407.32811 
L 378.974696 405.518333 
L 378.967504 404.042883 
L 379.538915 403.36349 
L 380.919295 403.753408 
L 383.100183 405.161008 
L 385.602974 406.932965 
L 387.665877 408.089095 
L 388.825336 408.07137 
L 389.161663 407.022341 
L 388.936705 403.87699 
L 388.727583 402.226045 
L 388.22184 400.252861 
L 387.560552 398.133512 
L 387.424038 396.654123 
L 388.540625 396.616615 
L 391.061692 398.137444 
L 394.232377 400.324675 
L 396.738786 401.718611 
L 397.628916 401.320694 
L 396.987243 399.285746 
L 395.797518 396.708529 
L 395.11964 394.710806 
L 395.290678 393.618064 
L 395.879821 392.960851 
L 396.325052 392.160447 
L 396.655472 391.250811 
L 397.588241 390.93676 
L 399.674762 391.728777 
L 402.384538 393.080251 
L 404.461828 393.787193 
L 405.221805 393.235114 
L 405.241103 391.999399 
L 405.621666 391.105223 
L 406.877216 391.000755 
L 408.840532 391.508822 
L 411.083489 392.231979 
L 413.087363 392.713478 
L 414.523999 392.681469 
L 415.410657 392.16883 
L 415.712661 391.164116 
L 415.35814 389.626396 
L 414.776852 387.924417 
L 414.548484 386.529267 
L 414.720701 384.27951 
L 415.008202 383.324613 
L 416.08622 382.977466 
L 418.137791 383.35267 
L 420.586182 383.994023 
L 422.528453 384.228559 
L 423.24789 383.552238 
L 422.410766 381.761077 
L 418.181256 376.477481 
L 417.181352 374.674102 
L 417.385284 373.714235 
L 417.466611 372.67781 
L 416.179665 370.745598 
L 413.617236 368.01392 
L 405.32149 359.754257 
L 403.948326 357.969773 
L 404.429753 357.344046 
L 409.151559 358.313281 
L 409.934812 357.828751 
L 408.126922 355.847397 
L 402.03563 350.60851 
L 401.219879 349.30067 
L 402.500026 349.149828 
L 407.203172 349.934039 
L 408.176791 349.56344 
L 407.500042 348.338857 
L 405.608016 346.51782 
L 403.431871 344.590197 
L 402.125012 343.12569 
L 402.537308 342.512925 
L 404.230113 342.505032 
L 405.564375 342.309372 
L 405.395342 341.409162 
L 403.972554 339.950473 
L 400.401164 336.792534 
L 400.030015 335.866102 
L 401.491563 335.722267 
L 403.85044 335.933357 
L 405.725932 335.917501 
L 407.140387 335.694171 
L 409.146827 335.687391 
L 411.767024 335.893062 
L 413.555078 335.750171 
L 413.426879 334.872981 
L 412.279801 333.629339 
L 412.030321 332.726828 
L 412.983705 332.253867 
L 413.648557 331.67189 
L 413.79139 330.908024 
L 415.020099 330.504668 
L 417.412211 330.464712 
L 418.635442 330.024903 
L 417.589028 328.867351 
L 416.260023 327.641221 
L 416.99032 327.047492 
L 422.469439 326.979471 
L 423.711353 326.480397 
L 423.634362 325.611131 
L 423.345372 324.689759 
L 423.503776 323.890018 
L 424.107888 323.202615 
L 425.181269 322.624524 
L 429.005906 321.822027 
L 430.082414 321.199454 
L 429.401923 320.181767 
L 427.637314 318.945414 
L 426.56254 317.875688 
L 427.364156 317.195457 
L 429.856254 316.832866 
L 432.887106 316.540964 
L 435.174898 316.078773 
L 435.750792 315.292192 
L 434.584067 314.20856 
L 426.644179 309.572863 
L 426.381026 308.714148 
L 426.984065 307.972442 
L 427.378867 307.198806 
L 426.741519 305.482056 
L 427.778218 304.773369 
L 433.225437 303.63222 
L 434.482943 302.886113 
L 433.525396 301.948118 
L 429.691095 299.980221 
L 427.926883 299.042247 
L 424.331889 298.02534 
L 414.542937 296.014128 
L 412.642434 295.209893 
L 412.971776 294.497862 
L 414.910489 293.821601 
L 419.16249 293.164362 
L 431.837704 291.719229 
L 434.631184 290.88 
L 434.631184 290.88 
" clip-path="url(#p4c4e25a241)" style="fill: none; stroke: #ff0000; stroke-width: 1.5; stroke-linecap: square"/>
   </g>
   <g id="patch_3">
    <path d="M 516.96 290.88 
C 516.96 261.758744 511.223747 232.920655 500.079525 206.016122 
C 488.935303 179.111589 472.599838 154.663838 452.008 134.072 
C 431.416162 113.480162 406.968411 97.144697 380.063878 86.000475 
C 353.159345 74.856253 324.321256 69.12 295.2 69.12 
C 266.078744 69.12 237.240655 74.856253 210.336122 86.000475 
C 183.431589 97.144697 158.983838 113.480162 138.392 134.072 
C 117.800162 154.663838 101.464697 179.111589 90.320475 206.016122 
C 79.176253 232.920655 73.44 261.758744 73.44 290.88 
C 73.44 320.001256 79.176253 348.839345 90.320475 375.743878 
C 101.464697 402.648411 117.800162 427.096162 138.392 447.688 
C 158.983838 468.279838 183.431589 484.615303 210.336122 495.759525 
C 237.240655 506.903747 266.078744 512.64 295.2 512.64 
C 324.321256 512.64 353.159345 506.903747 380.063878 495.759525 
C 406.968411 484.615303 431.416162 468.279838 452.008 447.688 
C 472.599838 427.096162 488.935303 402.648411 500.079525 375.743878 
C 511.223747 348.839345 516.96 320.001256 516.96 290.88 
" style="fill: none; stroke: #000000; stroke-width: 0.8; stroke-linejoin: miter; stroke-linecap: square"/>
   </g>
   <g id="text_15">
    <!-- Mean intensity for all inputs -->
    <g transform="translate(211.393125 44.280937) scale(0.12 -0.12)">
     <defs>
      <path id="DejaVuSans-4d" d="M 628 4666 
L 1569 4666 
L 2759 1491 
L 3956 4666 
L 4897 4666 
L 4897 0 
L 4281 0 
L 4281 4097 
L 3078 897 
L 2444 897 
L 1241 4097 
L 1241 0 
L 628 0 
L 628 4666 
z
" transform="scale(0.015625)"/>
      <path id="DejaVuSans-65" d="M 3597 1894 
L 3597 1613 
L 953 1613 
Q 991 1019 1311 708 
Q 1631 397 2203 397 
Q 2534 397 2845 478 
Q 3156 559 3463 722 
L 3463 178 
Q 3153 47 2828 -22 
Q 2503 -91 2169 -91 
Q 1331 -91 842 396 
Q 353 884 353 1716 
Q 353 2575 817 3079 
Q 1281 3584 2069 3584 
Q 2775 3584 3186 3129 
Q 3597 2675 3597 1894 
z
M 3022 2063 
Q 3016 2534 2758 2815 
Q 2500 3097 2075 3097 
Q 1594 3097 1305 2825 
Q 1016 2553 972 2059 
L 3022 2063 
z
" transform="scale(0.015625)"/>
      <path id="DejaVuSans-61" d="M 2194 1759 
Q 1497 1759 1228 1600 
Q 959 1441 959 1056 
Q 959 750 1161 570 
Q 1363 391 1709 391 
Q 2188 391 2477 730 
Q 2766 1069 2766 1631 
L 2766 1759 
L 2194 1759 
z
M 3341 1997 
L 3341 0 
L 2766 0 
L 2766 531 
Q 2569 213 2275 61 
Q 1981 -91 1556 -91 
Q 1019 -91 701 211 
Q 384 513 384 1019 
Q 384 1609 779 1909 
Q 1175 2209 1959 2209 
L 2766 2209 
L 2766 2266 
Q 2766 2663 2505 2880 
Q 2244 3097 1772 3097 
Q 1472 3097 1187 3025 
Q 903 2953 641 2809 
L 641 3341 
Q 956 3463 1253 3523 
Q 1550 3584 1831 3584 
Q 2591 3584 2966 3190 
Q 3341 2797 3341 1997 
z
" transform="scale(0.015625)"/>
      <path id="DejaVuSans-6e" d="M 3513 2113 
L 3513 0 
L 2938 0 
L 2938 2094 
Q 2938 2591 2744 2837 
Q 2550 3084 2163 3084 
Q 1697 3084 1428 2787 
Q 1159 2491 1159 1978 
L 1159 0 
L 581 0 
L 581 3500 
L 1159 3500 
L 1159 2956 
Q 1366 3272 1645 3428 
Q 1925 3584 2291 3584 
Q 2894 3584 3203 3211 
Q 3513 2838 3513 2113 
z
" transform="scale(0.015625)"/>
      <path id="DejaVuSans-20" transform="scale(0.015625)"/>
      <path id="DejaVuSans-69" d="M 603 3500 
L 1178 3500 
L 1178 0 
L 603 0 
L 603 3500 
z
M 603 4863 
L 1178 4863 
L 1178 4134 
L 603 4134 
L 603 4863 
z
" transform="scale(0.015625)"/>
      <path id="DejaVuSans-74" d="M 1172 4494 
L 1172 3500 
L 2356 3500 
L 2356 3053 
L 1172 3053 
L 1172 1153 
Q 1172 725 1289 603 
Q 1406 481 1766 481 
L 2356 481 
L 2356 0 
L 1766 0 
Q 1100 0 847 248 
Q 594 497 594 1153 
L 594 3053 
L 172 3053 
L 172 3500 
L 594 3500 
L 594 4494 
L 1172 4494 
z
" transform="scale(0.015625)"/>
      <path id="DejaVuSans-73" d="M 2834 3397 
L 2834 2853 
Q 2591 2978 2328 3040 
Q 2066 3103 1784 3103 
Q 1356 3103 1142 2972 
Q 928 2841 928 2578 
Q 928 2378 1081 2264 
Q 1234 2150 1697 2047 
L 1894 2003 
Q 2506 1872 2764 1633 
Q 3022 1394 3022 966 
Q 3022 478 2636 193 
Q 2250 -91 1575 -91 
Q 1294 -91 989 -36 
Q 684 19 347 128 
L 347 722 
Q 666 556 975 473 
Q 1284 391 1588 391 
Q 1994 391 2212 530 
Q 2431 669 2431 922 
Q 2431 1156 2273 1281 
Q 2116 1406 1581 1522 
L 1381 1569 
Q 847 1681 609 1914 
Q 372 2147 372 2553 
Q 372 3047 722 3315 
Q 1072 3584 1716 3584 
Q 2034 3584 2315 3537 
Q 2597 3491 2834 3397 
z
" transform="scale(0.015625)"/>
      <path id="DejaVuSans-79" d="M 2059 -325 
Q 1816 -950 1584 -1140 
Q 1353 -1331 966 -1331 
L 506 -1331 
L 506 -850 
L 844 -850 
Q 1081 -850 1212 -737 
Q 1344 -625 1503 -206 
L 1606 56 
L 191 3500 
L 800 3500 
L 1894 763 
L 2988 3500 
L 3597 3500 
L 2059 -325 
z
" transform="scale(0.015625)"/>
      <path id="DejaVuSans-66" d="M 2375 4863 
L 2375 4384 
L 1825 4384 
Q 1516 4384 1395 4259 
Q 1275 4134 1275 3809 
L 1275 3500 
L 2222 3500 
L 2222 3053 
L 1275 3053 
L 1275 0 
L 697 0 
L 697 3053 
L 147 3053 
L 147 3500 
L 697 3500 
L 697 3744 
Q 697 4328 969 4595 
Q 1241 4863 1831 4863 
L 2375 4863 
z
" transform="scale(0.015625)"/>
      <path id="DejaVuSans-6f" d="M 1959 3097 
Q 1497 3097 1228 2736 
Q 959 2375 959 1747 
Q 959 1119 1226 758 
Q 1494 397 1959 397 
Q 2419 397 2687 759 
Q 2956 1122 2956 1747 
Q 2956 2369 2687 2733 
Q 2419 3097 1959 3097 
z
M 1959 3584 
Q 2709 3584 3137 3096 
Q 3566 2609 3566 1747 
Q 3566 888 3137 398 
Q 2709 -91 1959 -91 
Q 1206 -91 779 398 
Q 353 888 353 1747 
Q 353 2609 779 3096 
Q 1206 3584 1959 3584 
z
" transform="scale(0.015625)"/>
      <path id="DejaVuSans-72" d="M 2631 2963 
Q 2534 3019 2420 3045 
Q 2306 3072 2169 3072 
Q 1681 3072 1420 2755 
Q 1159 2438 1159 1844 
L 1159 0 
L 581 0 
L 581 3500 
L 1159 3500 
L 1159 2956 
Q 1341 3275 1631 3429 
Q 1922 3584 2338 3584 
Q 2397 3584 2469 3576 
Q 2541 3569 2628 3553 
L 2631 2963 
z
" transform="scale(0.015625)"/>
      <path id="DejaVuSans-6c" d="M 603 4863 
L 1178 4863 
L 1178 0 
L 603 0 
L 603 4863 
z
" transform="scale(0.015625)"/>
      <path id="DejaVuSans-70" d="M 1159 525 
L 1159 -1331 
L 581 -1331 
L 581 3500 
L 1159 3500 
L 1159 2969 
Q 1341 3281 1617 3432 
Q 1894 3584 2278 3584 
Q 2916 3584 3314 3078 
Q 3713 2572 3713 1747 
Q 3713 922 3314 415 
Q 2916 -91 2278 -91 
Q 1894 -91 1617 61 
Q 1341 213 1159 525 
z
M 3116 1747 
Q 3116 2381 2855 2742 
Q 2594 3103 2138 3103 
Q 1681 3103 1420 2742 
Q 1159 2381 1159 1747 
Q 1159 1113 1420 752 
Q 1681 391 2138 391 
Q 2594 391 2855 752 
Q 3116 1113 3116 1747 
z
" transform="scale(0.015625)"/>
      <path id="DejaVuSans-75" d="M 544 1381 
L 544 3500 
L 1119 3500 
L 1119 1403 
Q 1119 906 1312 657 
Q 1506 409 1894 409 
Q 2359 409 2629 706 
Q 2900 1003 2900 1516 
L 2900 3500 
L 3475 3500 
L 3475 0 
L 2900 0 
L 2900 538 
Q 2691 219 2414 64 
Q 2138 -91 1772 -91 
Q 1169 -91 856 284 
Q 544 659 544 1381 
z
M 1991 3584 
L 1991 3584 
z
" transform="scale(0.015625)"/>
     </defs>
     <use xlink:href="#DejaVuSans-4d"/>
     <use xlink:href="#DejaVuSans-65" x="86.279297"/>
     <use xlink:href="#DejaVuSans-61" x="147.802734"/>
     <use xlink:href="#DejaVuSans-6e" x="209.082031"/>
     <use xlink:href="#DejaVuSans-20" x="272.460938"/>
     <use xlink:href="#DejaVuSans-69" x="304.248047"/>
     <use xlink:href="#DejaVuSans-6e" x="332.03125"/>
     <use xlink:href="#DejaVuSans-74" x="395.410156"/>
     <use xlink:href="#DejaVuSans-65" x="434.619141"/>
     <use xlink:href="#DejaVuSans-6e" x="496.142578"/>
     <use xlink:href="#DejaVuSans-73" x="559.521484"/>
     <use xlink:href="#DejaVuSans-69" x="611.621094"/>
     <use xlink:href="#DejaVuSans-74" x="639.404297"/>
     <use xlink:href="#DejaVuSans-79" x="678.613281"/>
     <use xlink:href="#DejaVuSans-20" x="737.792969"/>
     <use xlink:href="#DejaVuSans-66" x="769.580078"/>
     <use xlink:href="#DejaVuSans-6f" x="804.785156"/>
     <use xlink:href="#DejaVuSans-72" x="865.966797"/>
     <use xlink:href="#DejaVuSans-20" x="907.080078"/>
     <use xlink:href="#DejaVuSans-61" x="938.867188"/>
     <use xlink:href="#DejaVuSans-6c" x="1000.146484"/>
     <use xlink:href="#DejaVuSans-6c" x="1027.929688"/>
     <use xlink:href="#DejaVuSans-20" x="1055.712891"/>
     <use xlink:href="#DejaVuSans-69" x="1087.5"/>
     <use xlink:href="#DejaVuSans-6e" x="1115.283203"/>
     <use xlink:href="#DejaVuSans-70" x="1178.662109"/>
     <use xlink:href="#DejaVuSans-75" x="1242.138672"/>
     <use xlink:href="#DejaVuSans-74" x="1305.517578"/>
     <use xlink:href="#DejaVuSans-73" x="1344.726562"/>
    </g>
   </g>
   <g id="legend_1">
    <g id="patch_4">
     <path d="M 450.7475 106.47625 
L 509.96 106.47625 
Q 511.96 106.47625 511.96 104.47625 
L 511.96 76.12 
Q 511.96 74.12 509.96 74.12 
L 450.7475 74.12 
Q 448.7475 74.12 448.7475 76.12 
L 448.7475 104.47625 
Q 448.7475 106.47625 450.7475 106.47625 
z
" style="fill: #ffffff; opacity: 0.8; stroke: #cccccc; stroke-linejoin: miter"/>
    </g>
    <g id="line2d_17">
     <path d="M 452.7475 82.218438 
L 462.7475 82.218438 
L 472.7475 82.218438 
" style="fill: none; stroke: #0000ff; stroke-width: 1.5; stroke-linecap: square"/>
    </g>
    <g id="text_16">
     <!-- T=0 -->
     <g transform="translate(480.7475 85.718438) scale(0.1 -0.1)">
      <defs>
       <path id="DejaVuSans-54" d="M -19 4666 
L 3928 4666 
L 3928 4134 
L 2272 4134 
L 2272 0 
L 1638 0 
L 1638 4134 
L -19 4134 
L -19 4666 
z
" transform="scale(0.015625)"/>
       <path id="DejaVuSans-3d" d="M 678 2906 
L 4684 2906 
L 4684 2381 
L 678 2381 
L 678 2906 
z
M 678 1631 
L 4684 1631 
L 4684 1100 
L 678 1100 
L 678 1631 
z
" transform="scale(0.015625)"/>
      </defs>
      <use xlink:href="#DejaVuSans-54"/>
      <use xlink:href="#DejaVuSans-3d" x="61.083984"/>
      <use xlink:href="#DejaVuSans-30" x="144.873047"/>
     </g>
    </g>
    <g id="line2d_18">
     <path d="M 452.7475 96.896563 
L 462.7475 96.896563 
L 472.7475 96.896563 
" style="fill: none; stroke: #ff0000; stroke-width: 1.5; stroke-linecap: square"/>
    </g>
    <g id="text_17">
     <!-- T=15 -->
     <g transform="translate(480.7475 100.396563) scale(0.1 -0.1)">
      <use xlink:href="#DejaVuSans-54"/>
      <use xlink:href="#DejaVuSans-3d" x="61.083984"/>
      <use xlink:href="#DejaVuSans-31" x="144.873047"/>
      <use xlink:href="#DejaVuSans-35" x="208.496094"/>
     </g>
    </g>
   </g>
  </g>
 </g>
 <defs>
  <clipPath id="p4c4e25a241">
   <path d="M 516.96 290.88 
C 516.96 261.758744 511.223747 232.920655 500.079525 206.016122 
C 488.935303 179.111589 472.599838 154.663838 452.008 134.072 
C 431.416162 113.480162 406.968411 97.144697 380.063878 86.000475 
C 353.159345 74.856253 324.321256 69.12 295.2 69.12 
C 266.078744 69.12 237.240655 74.856253 210.336122 86.000475 
C 183.431589 97.144697 158.983838 113.480162 138.392 134.072 
C 117.800162 154.663838 101.464697 179.111589 90.320475 206.016122 
C 79.176253 232.920655 73.44 261.758744 73.44 290.88 
C 73.44 320.001256 79.176253 348.839345 90.320475 375.743878 
C 101.464697 402.648411 117.800162 427.096162 138.392 447.688 
C 158.983838 468.279838 183.431589 484.615303 210.336122 495.759525 
C 237.240655 506.903747 266.078744 512.64 295.2 512.64 
C 324.321256 512.64 353.159345 506.903747 380.063878 495.759525 
C 406.968411 484.615303 431.416162 468.279838 452.008 447.688 
C 472.599838 427.096162 488.935303 402.648411 500.079525 375.743878 
C 511.223747 348.839345 516.96 320.001256 516.96 290.88 
M 295.2 290.88 
C 295.2 290.88 295.2 290.88 295.2 290.88 
C 295.2 290.88 295.2 290.88 295.2 290.88 
C 295.2 290.88 295.2 290.88 295.2 290.88 
C 295.2 290.88 295.2 290.88 295.2 290.88 
C 295.2 290.88 295.2 290.88 295.2 290.88 
C 295.2 290.88 295.2 290.88 295.2 290.88 
C 295.2 290.88 295.2 290.88 295.2 290.88 
C 295.2 290.88 295.2 290.88 295.2 290.88 
C 295.2 290.88 295.2 290.88 295.2 290.88 
C 295.2 290.88 295.2 290.88 295.2 290.88 
C 295.2 290.88 295.2 290.88 295.2 290.88 
C 295.2 290.88 295.2 290.88 295.2 290.88 
C 295.2 290.88 295.2 290.88 295.2 290.88 
C 295.2 290.88 295.2 290.88 295.2 290.88 
C 295.2 290.88 295.2 290.88 295.2 290.88 
C 295.2 290.88 295.2 290.88 295.2 290.88 
z
"/>
  </clipPath>
 </defs>
</svg>
